<?xml version="1.0" encoding="utf-8"?>
<!-- Generator: Adobe Illustrator 22.1.0, SVG Export Plug-In . SVG Version: 6.00 Build 0)  -->
<svg version="1.1" id="Слой_1" xmlns="http://www.w3.org/2000/svg" xmlns:xlink="http://www.w3.org/1999/xlink" x="0px" y="0px"
	 viewBox="0 0 139 139" style="enable-background:new 0 0 139 139;" xml:space="preserve">
<g id="XMLID_7_">
	<path d="M34.7,89.5c-18.2,0-24.4-8.9-24.7-9.3l-1.1-1.7l23.4-35.8l5,3.3l-21,32.1c2.3,2,7.7,5.3,18.4,5.3V89.5z"/>
</g>
<g id="XMLID_6_">
	<path d="M104.2,89.5v-6c10.7,0,16.1-3.4,18.4-5.3l-21.4-32.9v-2.8H37.8v1l22.8,35l-1.1,1.6c-0.3,0.4-6.4,9.3-24.7,9.3v-6
		c10.7,0,16.1-3.4,18.4-5.3L31.8,45.3v-8.8h75.4v7l22.8,35l-1.1,1.6C128.6,80.6,122.4,89.5,104.2,89.5z"/>
</g>
<g id="XMLID_11_">
	<path d="M104.2,89.5c-18.2,0-24.4-8.9-24.7-9.3l-1.1-1.6l23.3-35.8l5,3.3L85.8,78.2c2.3,2,7.7,5.3,18.4,5.3V89.5z"/>
</g>
<g id="XMLID_9_">
	<rect x="66.5" y="31" width="6" height="75.6"/>
</g>
<g id="XMLID_10_">
	<rect x="44.2" y="103.6" width="50.5" height="6"/>
</g>
<g id="XMLID_8_">
	<path d="M12.5,78.5H57C57,78.5,34.7,95,12.5,78.5z"/>
	<path d="M33.8,86.3c-6.7,0-14.2-1.8-21.6-7.4L11,78h47.5l-1.2,0.9C57.1,79,47.1,86.3,33.8,86.3z M14.1,79
		c18.1,12.4,36.2,3.1,41.3,0H14.1z"/>
</g>
<g id="XMLID_13_">
	<path d="M82,78.5h44.5C126.5,78.5,104.2,95,82,78.5z"/>
	<path d="M103.3,86.3c-6.7,0-14.2-1.8-21.6-7.4L80.5,78H128l-1.2,0.9C126.6,79,116.6,86.3,103.3,86.3z M83.6,79
		c18.1,12.4,36.2,3.1,41.3,0H83.6z"/>
</g>
</svg>
