<?xml version="1.0" encoding="iso-8859-1"?>
<!-- Generator: Adobe Illustrator 19.0.0, SVG Export Plug-In . SVG Version: 6.00 Build 0)  -->
<svg version="1.1" id="Capa_1" xmlns="http://www.w3.org/2000/svg" xmlns:xlink="http://www.w3.org/1999/xlink" x="0px" y="0px"
	 viewBox="0 0 375.014 375.014" style="enable-background:new 0 0 375.014 375.014;" xml:space="preserve">
<g>
	<g>
		<path d="M346.184,20.48H28.831C12.933,20.48,0,33.415,0,49.311v276.393c0,15.898,12.935,28.831,28.831,28.831h317.355
			c15.896,0,28.829-12.933,28.829-28.831V49.311C375.014,33.413,362.08,20.48,346.184,20.48z M361.813,325.704
			c0,8.62-7.009,15.63-15.63,15.63H28.831c-8.62,0-15.63-7.009-15.63-15.63V49.311c0-8.62,7.009-15.63,15.63-15.63h317.353
			c8.62,0,15.63,7.009,15.63,15.63V325.704z"/>
	</g>
</g>
<g>
	<g>
		<path d="M341.108,47.561h-307.2c-3.77,0-6.827,3.057-6.827,6.827v191.147c0,3.77,3.057,6.827,6.827,6.827h307.2
			c3.77,0,6.827-3.057,6.827-6.827V54.388C347.935,50.618,344.878,47.561,341.108,47.561z M334.281,238.708H40.735V61.215h293.547
			V238.708z"/>
	</g>
</g>
<g>
	<g>
		<path d="M122.655,266.015h-81.92c-3.77,0-6.827,3.057-6.827,6.827c0,3.77,3.057,6.827,6.827,6.827h81.92
			c3.77,0,6.827-3.057,6.827-6.827C129.481,269.071,126.425,266.015,122.655,266.015z"/>
	</g>
</g>
<g>
	<g>
		<path d="M156.788,81.695c-21.081,0-39.91,11.779-49.138,30.747c-1.645,3.391-0.236,7.477,3.154,9.127
			c3.391,1.633,7.47,0.239,9.127-3.154c6.921-14.227,21.043-23.067,36.857-23.067c22.586,0,40.96,18.374,40.96,40.96
			c0,21.63-16.893,39.59-38.463,40.887c-3.763,0.222-6.63,3.459-6.403,7.223c0.217,3.623,3.222,6.417,6.806,6.417
			c0.137,0,0.276-0.003,0.416-0.014c28.764-1.725,51.297-25.67,51.297-54.513C211.401,106.194,186.902,81.695,156.788,81.695z"/>
	</g>
</g>
<g>
	<g>
		<path d="M334.281,266.015h-81.92c-3.77,0-6.827,3.057-6.827,6.827c0,3.77,3.057,6.827,6.827,6.827h81.92
			c3.77,0,6.827-3.057,6.827-6.827C341.108,269.071,338.051,266.015,334.281,266.015z"/>
	</g>
</g>
<g>
	<g>
		<path d="M88.521,293.321H40.735c-3.77,0-6.827,3.057-6.827,6.827s3.057,6.827,6.827,6.827h47.787c3.77,0,6.827-3.057,6.827-6.827
			S92.291,293.321,88.521,293.321z"/>
	</g>
</g>
<g>
	<g>
		<path d="M345.371,185.591l-68.267-54.613c-2.318-1.857-5.574-1.997-8.05-0.35l-96.72,64.48l-64.48-96.72
			c-2.017-3.024-6.057-3.948-9.194-2.067l-68.267,40.96c-2.057,1.234-3.313,3.458-3.313,5.854v102.4c0,3.77,3.057,6.827,6.827,6.827
			h307.2c3.77,0,6.827-3.057,6.827-6.827v-54.613C347.935,188.848,346.991,186.885,345.371,185.591z M334.281,238.708H40.735
			v-91.706l59.37-35.623l64.657,96.983c2.094,3.133,6.327,3.987,9.467,1.893l98.246-65.497l61.807,49.444V238.708z"/>
	</g>
</g>
<g>
</g>
<g>
</g>
<g>
</g>
<g>
</g>
<g>
</g>
<g>
</g>
<g>
</g>
<g>
</g>
<g>
</g>
<g>
</g>
<g>
</g>
<g>
</g>
<g>
</g>
<g>
</g>
<g>
</g>
</svg>
